<mxfile host="Electron" modified="2023-04-29T09:57:46.739Z" agent="Mozilla/5.0 (Windows NT 10.0; Win64; x64) AppleWebKit/537.36 (KHTML, like Gecko) draw.io/21.2.1 Chrome/112.0.5615.87 Electron/24.1.2 Safari/537.36" etag="A0Xa7DEUWcoou_B3Se3B" version="21.2.1" type="device">
  <diagram id="R2lEEEUBdFMjLlhIrx00" name="Page-1">
    <mxGraphModel dx="1644" dy="511" grid="1" gridSize="10" guides="1" tooltips="1" connect="1" arrows="1" fold="1" page="1" pageScale="1" pageWidth="850" pageHeight="1100" math="0" shadow="0" extFonts="Permanent Marker^https://fonts.googleapis.com/css?family=Permanent+Marker">
      <root>
        <mxCell id="0" />
        <mxCell id="1" parent="0" />
        <mxCell id="VTHBUv3CJ-BWsmUmesXm-1" value="PATIENT" style="rounded=0;whiteSpace=wrap;html=1;movable=0;resizable=0;rotatable=0;deletable=0;editable=0;locked=1;connectable=0;" parent="1" vertex="1">
          <mxGeometry x="190" y="180" width="120" height="60" as="geometry" />
        </mxCell>
        <mxCell id="VTHBUv3CJ-BWsmUmesXm-4" value="treats" style="rhombus;whiteSpace=wrap;html=1;movable=0;resizable=0;rotatable=0;deletable=0;editable=0;locked=1;connectable=0;" parent="1" vertex="1">
          <mxGeometry x="425" y="170" width="80" height="80" as="geometry" />
        </mxCell>
        <mxCell id="VTHBUv3CJ-BWsmUmesXm-10" value="DOCTOR" style="rounded=0;whiteSpace=wrap;html=1;movable=0;resizable=0;rotatable=0;deletable=0;editable=0;locked=1;connectable=0;" parent="1" vertex="1">
          <mxGeometry x="570" y="180" width="120" height="60" as="geometry" />
        </mxCell>
        <mxCell id="VTHBUv3CJ-BWsmUmesXm-11" value="" style="endArrow=classic;html=1;rounded=0;movable=1;resizable=1;rotatable=1;deletable=1;editable=1;locked=0;connectable=1;exitX=0.561;exitY=1.022;exitDx=0;exitDy=0;exitPerimeter=0;" parent="1" source="VTHBUv3CJ-BWsmUmesXm-10" edge="1">
          <mxGeometry width="50" height="50" relative="1" as="geometry">
            <mxPoint x="637.2727272727275" y="290" as="sourcePoint" />
            <mxPoint x="640" y="320" as="targetPoint" />
          </mxGeometry>
        </mxCell>
        <mxCell id="VTHBUv3CJ-BWsmUmesXm-12" value="prescribes" style="rhombus;whiteSpace=wrap;html=1;movable=0;resizable=0;rotatable=0;deletable=0;editable=0;locked=1;connectable=0;" parent="1" vertex="1">
          <mxGeometry x="600" y="320" width="80" height="80" as="geometry" />
        </mxCell>
        <mxCell id="VTHBUv3CJ-BWsmUmesXm-13" value="Drugs" style="rounded=0;whiteSpace=wrap;html=1;movable=0;resizable=0;rotatable=0;deletable=0;editable=0;locked=1;connectable=0;" parent="1" vertex="1">
          <mxGeometry x="580" y="480" width="120" height="60" as="geometry" />
        </mxCell>
        <mxCell id="VTHBUv3CJ-BWsmUmesXm-14" value="" style="endArrow=classic;html=1;rounded=0;entryX=0.5;entryY=0;entryDx=0;entryDy=0;movable=0;resizable=0;rotatable=0;deletable=0;editable=0;locked=1;connectable=0;" parent="1" source="VTHBUv3CJ-BWsmUmesXm-12" target="VTHBUv3CJ-BWsmUmesXm-13" edge="1">
          <mxGeometry width="50" height="50" relative="1" as="geometry">
            <mxPoint x="615" y="460" as="sourcePoint" />
            <mxPoint x="665" y="410" as="targetPoint" />
          </mxGeometry>
        </mxCell>
        <mxCell id="VTHBUv3CJ-BWsmUmesXm-15" value="" style="endArrow=none;html=1;rounded=0;movable=0;resizable=0;rotatable=0;deletable=0;editable=0;locked=1;connectable=0;" parent="1" target="VTHBUv3CJ-BWsmUmesXm-16" edge="1">
          <mxGeometry width="50" height="50" relative="1" as="geometry">
            <mxPoint x="300" y="180" as="sourcePoint" />
            <mxPoint x="350" y="130" as="targetPoint" />
          </mxGeometry>
        </mxCell>
        <mxCell id="VTHBUv3CJ-BWsmUmesXm-16" value="&lt;u&gt;SSN&lt;/u&gt;" style="ellipse;whiteSpace=wrap;html=1;movable=0;resizable=0;rotatable=0;deletable=0;editable=0;locked=1;connectable=0;" parent="1" vertex="1">
          <mxGeometry x="310" y="90" width="120" height="50" as="geometry" />
        </mxCell>
        <mxCell id="VTHBUv3CJ-BWsmUmesXm-17" value="" style="endArrow=none;html=1;rounded=0;movable=0;resizable=0;rotatable=0;deletable=0;editable=0;locked=1;connectable=0;" parent="1" target="VTHBUv3CJ-BWsmUmesXm-18" edge="1">
          <mxGeometry width="50" height="50" relative="1" as="geometry">
            <mxPoint x="260" y="180" as="sourcePoint" />
            <mxPoint x="260" y="120" as="targetPoint" />
          </mxGeometry>
        </mxCell>
        <mxCell id="VTHBUv3CJ-BWsmUmesXm-18" value="Address" style="ellipse;whiteSpace=wrap;html=1;movable=0;resizable=0;rotatable=0;deletable=0;editable=0;locked=1;connectable=0;" parent="1" vertex="1">
          <mxGeometry x="160" y="10" width="120" height="40" as="geometry" />
        </mxCell>
        <mxCell id="VTHBUv3CJ-BWsmUmesXm-19" value="" style="endArrow=none;html=1;rounded=0;entryX=0.25;entryY=0;entryDx=0;entryDy=0;exitX=1;exitY=1;exitDx=0;exitDy=0;movable=0;resizable=0;rotatable=0;deletable=0;editable=0;locked=1;connectable=0;" parent="1" source="VTHBUv3CJ-BWsmUmesXm-20" target="VTHBUv3CJ-BWsmUmesXm-1" edge="1">
          <mxGeometry width="50" height="50" relative="1" as="geometry">
            <mxPoint x="140" y="120" as="sourcePoint" />
            <mxPoint x="170" y="130" as="targetPoint" />
          </mxGeometry>
        </mxCell>
        <mxCell id="VTHBUv3CJ-BWsmUmesXm-20" value="Age&amp;nbsp;" style="ellipse;whiteSpace=wrap;html=1;movable=0;resizable=0;rotatable=0;deletable=0;editable=0;locked=1;connectable=0;" parent="1" vertex="1">
          <mxGeometry x="40" y="80" width="120" height="40" as="geometry" />
        </mxCell>
        <mxCell id="VTHBUv3CJ-BWsmUmesXm-21" value="" style="endArrow=none;html=1;rounded=0;movable=0;resizable=0;rotatable=0;deletable=0;editable=0;locked=1;connectable=0;" parent="1" edge="1">
          <mxGeometry width="50" height="50" relative="1" as="geometry">
            <mxPoint x="270" y="180" as="sourcePoint" />
            <mxPoint x="320" y="80" as="targetPoint" />
          </mxGeometry>
        </mxCell>
        <mxCell id="VTHBUv3CJ-BWsmUmesXm-22" value="PName" style="ellipse;whiteSpace=wrap;html=1;movable=0;resizable=0;rotatable=0;deletable=0;editable=0;locked=1;connectable=0;" parent="1" vertex="1">
          <mxGeometry x="270" y="30" width="120" height="50" as="geometry" />
        </mxCell>
        <mxCell id="VTHBUv3CJ-BWsmUmesXm-23" value="" style="endArrow=none;html=1;rounded=0;entryX=0;entryY=1;entryDx=0;entryDy=0;movable=0;resizable=0;rotatable=0;deletable=0;editable=0;locked=1;connectable=0;" parent="1" target="VTHBUv3CJ-BWsmUmesXm-26" edge="1">
          <mxGeometry width="50" height="50" relative="1" as="geometry">
            <mxPoint x="670" y="180" as="sourcePoint" />
            <mxPoint x="700" y="140" as="targetPoint" />
          </mxGeometry>
        </mxCell>
        <mxCell id="VTHBUv3CJ-BWsmUmesXm-24" value="" style="endArrow=none;html=1;rounded=0;movable=0;resizable=0;rotatable=0;deletable=0;editable=0;locked=1;connectable=0;entryX=0.5;entryY=1;entryDx=0;entryDy=0;exitX=0.183;exitY=0.022;exitDx=0;exitDy=0;exitPerimeter=0;" parent="1" edge="1" target="VTHBUv3CJ-BWsmUmesXm-25" source="VTHBUv3CJ-BWsmUmesXm-10">
          <mxGeometry width="50" height="50" relative="1" as="geometry">
            <mxPoint x="570" y="180" as="sourcePoint" />
            <mxPoint x="620" y="130" as="targetPoint" />
            <Array as="points" />
          </mxGeometry>
        </mxCell>
        <mxCell id="VTHBUv3CJ-BWsmUmesXm-25" value="DName" style="ellipse;whiteSpace=wrap;html=1;movable=0;resizable=0;rotatable=0;deletable=0;editable=0;locked=1;connectable=0;" parent="1" vertex="1">
          <mxGeometry x="510" y="75" width="120" height="50" as="geometry" />
        </mxCell>
        <mxCell id="VTHBUv3CJ-BWsmUmesXm-26" value="&lt;u&gt;DSSN&lt;/u&gt;" style="ellipse;whiteSpace=wrap;html=1;movable=0;resizable=0;rotatable=0;deletable=0;editable=0;locked=1;connectable=0;" parent="1" vertex="1">
          <mxGeometry x="700" y="125" width="120" height="40" as="geometry" />
        </mxCell>
        <mxCell id="VTHBUv3CJ-BWsmUmesXm-27" value="" style="endArrow=none;html=1;rounded=0;movable=0;resizable=0;rotatable=0;deletable=0;editable=0;locked=1;connectable=0;" parent="1" target="VTHBUv3CJ-BWsmUmesXm-28" edge="1">
          <mxGeometry width="50" height="50" relative="1" as="geometry">
            <mxPoint x="650" y="330" as="sourcePoint" />
            <mxPoint x="700" y="280" as="targetPoint" />
          </mxGeometry>
        </mxCell>
        <mxCell id="VTHBUv3CJ-BWsmUmesXm-28" value="TradeName" style="ellipse;whiteSpace=wrap;html=1;movable=0;resizable=0;rotatable=0;deletable=0;editable=0;locked=1;connectable=0;" parent="1" vertex="1">
          <mxGeometry x="670" y="270" width="120" height="40" as="geometry" />
        </mxCell>
        <mxCell id="VTHBUv3CJ-BWsmUmesXm-29" value="" style="endArrow=none;html=1;rounded=0;entryX=0.883;entryY=0.354;entryDx=0;entryDy=0;entryPerimeter=0;movable=0;resizable=0;rotatable=0;deletable=0;editable=0;locked=1;connectable=0;" parent="1" target="VTHBUv3CJ-BWsmUmesXm-12" edge="1">
          <mxGeometry width="50" height="50" relative="1" as="geometry">
            <mxPoint x="725" y="340" as="sourcePoint" />
            <mxPoint x="680" y="354" as="targetPoint" />
          </mxGeometry>
        </mxCell>
        <mxCell id="VTHBUv3CJ-BWsmUmesXm-31" value="&lt;u&gt;PresID&lt;/u&gt;" style="ellipse;whiteSpace=wrap;html=1;movable=0;resizable=0;rotatable=0;deletable=0;editable=0;locked=1;connectable=0;" parent="1" vertex="1">
          <mxGeometry x="720" y="320" width="120" height="50" as="geometry" />
        </mxCell>
        <mxCell id="VTHBUv3CJ-BWsmUmesXm-34" value="" style="endArrow=none;html=1;rounded=0;exitX=0.408;exitY=0.113;exitDx=0;exitDy=0;exitPerimeter=0;movable=0;resizable=0;rotatable=0;deletable=0;editable=0;locked=1;connectable=0;" parent="1" source="VTHBUv3CJ-BWsmUmesXm-12" target="VTHBUv3CJ-BWsmUmesXm-35" edge="1">
          <mxGeometry width="50" height="50" relative="1" as="geometry">
            <mxPoint x="630" y="320" as="sourcePoint" />
            <mxPoint x="640" y="330" as="targetPoint" />
          </mxGeometry>
        </mxCell>
        <mxCell id="VTHBUv3CJ-BWsmUmesXm-35" value="DSSN" style="ellipse;whiteSpace=wrap;html=1;movable=0;resizable=0;rotatable=0;deletable=0;editable=0;locked=1;connectable=0;" parent="1" vertex="1">
          <mxGeometry x="505" y="280" width="105" height="40" as="geometry" />
        </mxCell>
        <mxCell id="VTHBUv3CJ-BWsmUmesXm-40" value="" style="endArrow=none;html=1;rounded=0;movable=0;resizable=0;rotatable=0;deletable=0;editable=0;locked=1;connectable=0;" parent="1" edge="1">
          <mxGeometry width="50" height="50" relative="1" as="geometry">
            <mxPoint x="530" y="340" as="sourcePoint" />
            <mxPoint x="610" y="350" as="targetPoint" />
          </mxGeometry>
        </mxCell>
        <mxCell id="VTHBUv3CJ-BWsmUmesXm-41" value="PName" style="ellipse;whiteSpace=wrap;html=1;movable=0;resizable=0;rotatable=0;deletable=0;editable=0;locked=1;connectable=0;" parent="1" vertex="1">
          <mxGeometry x="410" y="320" width="120" height="45" as="geometry" />
        </mxCell>
        <mxCell id="VTHBUv3CJ-BWsmUmesXm-42" value="" style="endArrow=none;html=1;rounded=0;entryX=0;entryY=0;entryDx=0;entryDy=0;movable=0;resizable=0;rotatable=0;deletable=0;editable=0;locked=1;connectable=0;" parent="1" target="VTHBUv3CJ-BWsmUmesXm-12" edge="1">
          <mxGeometry width="50" height="50" relative="1" as="geometry">
            <mxPoint x="420" y="300" as="sourcePoint" />
            <mxPoint x="620" y="335" as="targetPoint" />
          </mxGeometry>
        </mxCell>
        <mxCell id="VTHBUv3CJ-BWsmUmesXm-43" value="DName" style="ellipse;whiteSpace=wrap;html=1;movable=0;resizable=0;rotatable=0;deletable=0;editable=0;locked=1;connectable=0;" parent="1" vertex="1">
          <mxGeometry x="300" y="280" width="120" height="40" as="geometry" />
        </mxCell>
        <mxCell id="VTHBUv3CJ-BWsmUmesXm-46" value="" style="endArrow=none;html=1;rounded=0;exitX=0.6;exitY=0.096;exitDx=0;exitDy=0;exitPerimeter=0;movable=0;resizable=0;rotatable=0;deletable=0;editable=0;locked=1;connectable=0;" parent="1" source="VTHBUv3CJ-BWsmUmesXm-12" edge="1">
          <mxGeometry width="50" height="50" relative="1" as="geometry">
            <mxPoint x="640" y="325" as="sourcePoint" />
            <mxPoint x="750" y="250" as="targetPoint" />
            <Array as="points">
              <mxPoint x="660" y="260" />
            </Array>
          </mxGeometry>
        </mxCell>
        <mxCell id="VTHBUv3CJ-BWsmUmesXm-47" value="Dosage" style="ellipse;whiteSpace=wrap;html=1;movable=0;resizable=0;rotatable=0;deletable=0;editable=0;locked=1;connectable=0;" parent="1" vertex="1">
          <mxGeometry x="750" y="220" width="120" height="50" as="geometry" />
        </mxCell>
        <mxCell id="VTHBUv3CJ-BWsmUmesXm-48" value="" style="endArrow=none;html=1;rounded=0;movable=1;resizable=1;rotatable=1;deletable=1;editable=1;locked=0;connectable=1;entryX=0;entryY=1;entryDx=0;entryDy=0;" parent="1" edge="1" target="VTHBUv3CJ-BWsmUmesXm-51">
          <mxGeometry width="50" height="50" relative="1" as="geometry">
            <mxPoint x="670" y="480" as="sourcePoint" />
            <mxPoint x="810" y="440" as="targetPoint" />
          </mxGeometry>
        </mxCell>
        <mxCell id="VTHBUv3CJ-BWsmUmesXm-50" value="" style="endArrow=none;html=1;rounded=0;movable=1;resizable=1;rotatable=1;deletable=1;editable=1;locked=0;connectable=1;" parent="1" edge="1">
          <mxGeometry width="50" height="50" relative="1" as="geometry">
            <mxPoint x="600" y="480" as="sourcePoint" />
            <mxPoint x="600" y="440" as="targetPoint" />
          </mxGeometry>
        </mxCell>
        <mxCell id="VTHBUv3CJ-BWsmUmesXm-51" value="&lt;u&gt;TradeName&lt;/u&gt;" style="ellipse;whiteSpace=wrap;html=1;movable=0;resizable=0;rotatable=0;deletable=0;editable=0;locked=1;connectable=0;" parent="1" vertex="1">
          <mxGeometry x="790" y="420" width="120" height="50" as="geometry" />
        </mxCell>
        <mxCell id="VTHBUv3CJ-BWsmUmesXm-52" value="Formula" style="ellipse;whiteSpace=wrap;html=1;movable=0;resizable=0;rotatable=0;deletable=0;editable=0;locked=1;connectable=0;" parent="1" vertex="1">
          <mxGeometry x="560" y="410" width="70" height="30" as="geometry" />
        </mxCell>
        <mxCell id="VTHBUv3CJ-BWsmUmesXm-53" value="buys" style="rhombus;whiteSpace=wrap;html=1;movable=0;resizable=0;rotatable=0;deletable=0;editable=0;locked=1;connectable=0;" parent="1" vertex="1">
          <mxGeometry x="280" y="385" width="80" height="80" as="geometry" />
        </mxCell>
        <mxCell id="VTHBUv3CJ-BWsmUmesXm-54" value="" style="endArrow=classic;html=1;rounded=0;entryX=0;entryY=0.75;entryDx=0;entryDy=0;exitX=1;exitY=0.5;exitDx=0;exitDy=0;" parent="1" source="VTHBUv3CJ-BWsmUmesXm-53" target="VTHBUv3CJ-BWsmUmesXm-13" edge="1">
          <mxGeometry width="50" height="50" relative="1" as="geometry">
            <mxPoint x="370" y="500" as="sourcePoint" />
            <mxPoint x="420" y="450" as="targetPoint" />
          </mxGeometry>
        </mxCell>
        <mxCell id="VTHBUv3CJ-BWsmUmesXm-55" value="" style="endArrow=classic;html=1;rounded=0;entryX=0.5;entryY=0;entryDx=0;entryDy=0;exitX=0.417;exitY=1;exitDx=0;exitDy=0;exitPerimeter=0;movable=0;resizable=0;rotatable=0;deletable=0;editable=0;locked=1;connectable=0;" parent="1" source="VTHBUv3CJ-BWsmUmesXm-1" target="VTHBUv3CJ-BWsmUmesXm-53" edge="1">
          <mxGeometry width="50" height="50" relative="1" as="geometry">
            <mxPoint x="240" y="360" as="sourcePoint" />
            <mxPoint x="290" y="310" as="targetPoint" />
          </mxGeometry>
        </mxCell>
        <mxCell id="VTHBUv3CJ-BWsmUmesXm-56" value="" style="endArrow=classic;html=1;rounded=0;entryX=0.75;entryY=1;entryDx=0;entryDy=0;exitX=0.5;exitY=0;exitDx=0;exitDy=0;movable=0;resizable=0;rotatable=0;deletable=0;editable=0;locked=1;connectable=0;" parent="1" source="VTHBUv3CJ-BWsmUmesXm-59" target="VTHBUv3CJ-BWsmUmesXm-13" edge="1">
          <mxGeometry width="50" height="50" relative="1" as="geometry">
            <mxPoint x="540" y="600" as="sourcePoint" />
            <mxPoint x="550" y="550" as="targetPoint" />
            <Array as="points" />
          </mxGeometry>
        </mxCell>
        <mxCell id="VTHBUv3CJ-BWsmUmesXm-59" value="sells" style="rhombus;whiteSpace=wrap;html=1;movable=0;resizable=0;rotatable=0;deletable=0;editable=0;locked=1;connectable=0;" parent="1" vertex="1">
          <mxGeometry x="630" y="610" width="70" height="80" as="geometry" />
        </mxCell>
        <mxCell id="VTHBUv3CJ-BWsmUmesXm-60" value="" style="endArrow=classic;html=1;rounded=0;entryX=0;entryY=0.5;entryDx=0;entryDy=0;movable=0;resizable=0;rotatable=0;deletable=0;editable=0;locked=1;connectable=0;" parent="1" target="VTHBUv3CJ-BWsmUmesXm-59" edge="1">
          <mxGeometry width="50" height="50" relative="1" as="geometry">
            <mxPoint x="360" y="650" as="sourcePoint" />
            <mxPoint x="450" y="650" as="targetPoint" />
          </mxGeometry>
        </mxCell>
        <mxCell id="VTHBUv3CJ-BWsmUmesXm-61" value="Pharmacy" style="rounded=0;whiteSpace=wrap;html=1;movable=0;resizable=0;rotatable=0;deletable=0;editable=0;locked=1;connectable=0;" parent="1" vertex="1">
          <mxGeometry x="240" y="620" width="120" height="60" as="geometry" />
        </mxCell>
        <mxCell id="VTHBUv3CJ-BWsmUmesXm-63" value="" style="endArrow=classic;html=1;rounded=0;exitX=0;exitY=0.5;exitDx=0;exitDy=0;entryX=1;entryY=0.5;entryDx=0;entryDy=0;movable=0;resizable=0;rotatable=0;deletable=0;editable=0;locked=1;connectable=0;" parent="1" source="VTHBUv3CJ-BWsmUmesXm-10" target="VTHBUv3CJ-BWsmUmesXm-4" edge="1">
          <mxGeometry width="50" height="50" relative="1" as="geometry">
            <mxPoint x="520" y="210" as="sourcePoint" />
            <mxPoint x="570" y="160" as="targetPoint" />
          </mxGeometry>
        </mxCell>
        <mxCell id="VTHBUv3CJ-BWsmUmesXm-64" value="" style="endArrow=classic;html=1;rounded=0;entryX=1;entryY=0.5;entryDx=0;entryDy=0;exitX=0;exitY=0.5;exitDx=0;exitDy=0;movable=0;resizable=0;rotatable=0;deletable=0;editable=0;locked=1;connectable=0;" parent="1" source="VTHBUv3CJ-BWsmUmesXm-4" edge="1">
          <mxGeometry width="50" height="50" relative="1" as="geometry">
            <mxPoint x="420" y="210" as="sourcePoint" />
            <mxPoint x="310" y="210" as="targetPoint" />
          </mxGeometry>
        </mxCell>
        <mxCell id="VTHBUv3CJ-BWsmUmesXm-65" value="" style="endArrow=none;html=1;rounded=0;movable=0;resizable=0;rotatable=0;deletable=0;editable=0;locked=1;connectable=0;" parent="1" edge="1">
          <mxGeometry width="50" height="50" relative="1" as="geometry">
            <mxPoint x="335" y="620" as="sourcePoint" />
            <mxPoint x="390" y="540" as="targetPoint" />
          </mxGeometry>
        </mxCell>
        <mxCell id="VTHBUv3CJ-BWsmUmesXm-66" value="" style="endArrow=none;html=1;rounded=0;movable=0;resizable=0;rotatable=0;deletable=0;editable=0;locked=1;connectable=0;" parent="1" edge="1">
          <mxGeometry width="50" height="50" relative="1" as="geometry">
            <mxPoint x="310" y="620" as="sourcePoint" />
            <mxPoint x="290" y="570" as="targetPoint" />
          </mxGeometry>
        </mxCell>
        <mxCell id="VTHBUv3CJ-BWsmUmesXm-67" value="Address" style="ellipse;whiteSpace=wrap;html=1;movable=0;resizable=0;rotatable=0;deletable=0;editable=0;locked=1;connectable=0;" parent="1" vertex="1">
          <mxGeometry x="350" y="502.5" width="120" height="40" as="geometry" />
        </mxCell>
        <mxCell id="VTHBUv3CJ-BWsmUmesXm-68" value="&lt;u&gt;PharPhoneNo&lt;/u&gt;" style="ellipse;whiteSpace=wrap;html=1;movable=0;resizable=0;rotatable=0;deletable=0;editable=0;locked=1;connectable=0;" parent="1" vertex="1">
          <mxGeometry x="230" y="530" width="120" height="40" as="geometry" />
        </mxCell>
        <mxCell id="VTHBUv3CJ-BWsmUmesXm-71" value="" style="endArrow=none;html=1;rounded=0;movable=0;resizable=0;rotatable=0;deletable=0;editable=0;locked=1;connectable=0;entryX=0;entryY=1;entryDx=0;entryDy=0;" parent="1" edge="1" target="VTHBUv3CJ-BWsmUmesXm-72">
          <mxGeometry width="50" height="50" relative="1" as="geometry">
            <mxPoint x="360" y="640" as="sourcePoint" />
            <mxPoint x="390" y="620" as="targetPoint" />
          </mxGeometry>
        </mxCell>
        <mxCell id="VTHBUv3CJ-BWsmUmesXm-72" value="PharName" style="ellipse;whiteSpace=wrap;html=1;movable=0;resizable=0;rotatable=0;deletable=0;editable=0;locked=1;connectable=0;" parent="1" vertex="1">
          <mxGeometry x="405" y="557.5" width="80" height="40" as="geometry" />
        </mxCell>
        <mxCell id="VTHBUv3CJ-BWsmUmesXm-73" value="" style="endArrow=classic;html=1;rounded=0;entryX=0.183;entryY=1.033;entryDx=0;entryDy=0;entryPerimeter=0;movable=0;resizable=0;rotatable=0;deletable=0;editable=0;locked=1;connectable=0;" parent="1" target="VTHBUv3CJ-BWsmUmesXm-61" edge="1">
          <mxGeometry width="50" height="50" relative="1" as="geometry">
            <mxPoint x="240" y="760" as="sourcePoint" />
            <mxPoint x="240" y="680" as="targetPoint" />
          </mxGeometry>
        </mxCell>
        <mxCell id="VTHBUv3CJ-BWsmUmesXm-74" value="Works In" style="rhombus;whiteSpace=wrap;html=1;movable=0;resizable=0;rotatable=0;deletable=0;editable=0;locked=1;connectable=0;" parent="1" vertex="1">
          <mxGeometry x="200" y="760" width="80" height="80" as="geometry" />
        </mxCell>
        <mxCell id="VTHBUv3CJ-BWsmUmesXm-75" value="" style="endArrow=classic;html=1;rounded=0;entryX=0.5;entryY=1;entryDx=0;entryDy=0;movable=0;resizable=0;rotatable=0;deletable=0;editable=0;locked=1;connectable=0;" parent="1" target="VTHBUv3CJ-BWsmUmesXm-74" edge="1">
          <mxGeometry width="50" height="50" relative="1" as="geometry">
            <mxPoint x="240" y="920" as="sourcePoint" />
            <mxPoint x="340" y="870" as="targetPoint" />
          </mxGeometry>
        </mxCell>
        <mxCell id="VTHBUv3CJ-BWsmUmesXm-76" value="Pharmacist" style="rounded=0;whiteSpace=wrap;html=1;movable=0;resizable=0;rotatable=0;deletable=0;editable=0;locked=1;connectable=0;" parent="1" vertex="1">
          <mxGeometry x="185" y="920" width="120" height="60" as="geometry" />
        </mxCell>
        <mxCell id="VTHBUv3CJ-BWsmUmesXm-80" value="" style="endArrow=none;html=1;rounded=0;movable=0;resizable=0;rotatable=0;deletable=0;editable=0;locked=1;connectable=0;entryX=0;entryY=1;entryDx=0;entryDy=0;" parent="1" edge="1" target="VTHBUv3CJ-BWsmUmesXm-84">
          <mxGeometry width="50" height="50" relative="1" as="geometry">
            <mxPoint x="250" y="920" as="sourcePoint" />
            <mxPoint x="330" y="830" as="targetPoint" />
          </mxGeometry>
        </mxCell>
        <mxCell id="VTHBUv3CJ-BWsmUmesXm-81" value="" style="endArrow=none;html=1;rounded=0;entryX=0.322;entryY=0.006;entryDx=0;entryDy=0;entryPerimeter=0;movable=0;resizable=0;rotatable=0;deletable=0;editable=0;locked=1;connectable=0;" parent="1" target="VTHBUv3CJ-BWsmUmesXm-76" edge="1" source="VTHBUv3CJ-BWsmUmesXm-82">
          <mxGeometry width="50" height="50" relative="1" as="geometry">
            <mxPoint x="240" y="860" as="sourcePoint" />
            <mxPoint x="260" y="860" as="targetPoint" />
          </mxGeometry>
        </mxCell>
        <mxCell id="VTHBUv3CJ-BWsmUmesXm-82" value="&lt;u&gt;PharSSN&lt;/u&gt;" style="ellipse;whiteSpace=wrap;html=1;movable=0;resizable=0;rotatable=0;deletable=0;editable=0;locked=1;connectable=0;" parent="1" vertex="1">
          <mxGeometry x="100" y="820" width="120" height="40" as="geometry" />
        </mxCell>
        <mxCell id="VTHBUv3CJ-BWsmUmesXm-83" value="fname" style="ellipse;whiteSpace=wrap;html=1;movable=0;resizable=0;rotatable=0;deletable=0;editable=0;locked=1;connectable=0;" parent="1" vertex="1">
          <mxGeometry x="300" y="835" width="120" height="30" as="geometry" />
        </mxCell>
        <mxCell id="VTHBUv3CJ-BWsmUmesXm-84" value="lname" style="ellipse;whiteSpace=wrap;html=1;movable=0;resizable=0;rotatable=0;deletable=0;editable=0;locked=1;connectable=0;" parent="1" vertex="1">
          <mxGeometry x="290" y="760" width="120" height="50" as="geometry" />
        </mxCell>
        <mxCell id="VTHBUv3CJ-BWsmUmesXm-85" value="" style="endArrow=classic;html=1;rounded=0;movable=0;resizable=0;rotatable=0;deletable=0;editable=0;locked=1;connectable=0;entryX=1;entryY=1;entryDx=0;entryDy=0;exitX=0.5;exitY=0;exitDx=0;exitDy=0;" parent="1" source="VTHBUv3CJ-BWsmUmesXm-86" target="VTHBUv3CJ-BWsmUmesXm-61" edge="1">
          <mxGeometry width="50" height="50" relative="1" as="geometry">
            <mxPoint x="530" y="800" as="sourcePoint" />
            <mxPoint x="690" y="760" as="targetPoint" />
            <Array as="points">
              <mxPoint x="440" y="800" />
            </Array>
          </mxGeometry>
        </mxCell>
        <mxCell id="VTHBUv3CJ-BWsmUmesXm-86" value="has a" style="rhombus;whiteSpace=wrap;html=1;movable=0;resizable=0;rotatable=0;deletable=0;editable=0;locked=1;connectable=0;" parent="1" vertex="1">
          <mxGeometry x="510" y="1020" width="110" height="90" as="geometry" />
        </mxCell>
        <mxCell id="VTHBUv3CJ-BWsmUmesXm-87" value="" style="endArrow=classic;html=1;rounded=0;exitX=0;exitY=0.5;exitDx=0;exitDy=0;movable=0;resizable=0;rotatable=0;deletable=0;editable=0;locked=1;connectable=0;entryX=1;entryY=0.5;entryDx=0;entryDy=0;" parent="1" source="VTHBUv3CJ-BWsmUmesXm-88" target="VTHBUv3CJ-BWsmUmesXm-86" edge="1">
          <mxGeometry width="50" height="50" relative="1" as="geometry">
            <mxPoint x="690" y="760" as="sourcePoint" />
            <mxPoint x="610" y="1000" as="targetPoint" />
          </mxGeometry>
        </mxCell>
        <mxCell id="VTHBUv3CJ-BWsmUmesXm-88" value="Pharmaceutical&amp;nbsp;&lt;br&gt;Company" style="rounded=0;whiteSpace=wrap;html=1;movable=0;resizable=0;rotatable=0;deletable=0;editable=0;locked=1;connectable=0;" parent="1" vertex="1">
          <mxGeometry x="770" y="790" width="120" height="60" as="geometry" />
        </mxCell>
        <mxCell id="VTHBUv3CJ-BWsmUmesXm-89" value="" style="endArrow=classic;html=1;rounded=0;entryX=0.5;entryY=1;entryDx=0;entryDy=0;movable=0;resizable=0;rotatable=0;deletable=0;editable=0;locked=1;connectable=0;" parent="1" target="VTHBUv3CJ-BWsmUmesXm-90" edge="1">
          <mxGeometry width="50" height="50" relative="1" as="geometry">
            <mxPoint x="850" y="790" as="sourcePoint" />
            <mxPoint x="850" y="710" as="targetPoint" />
          </mxGeometry>
        </mxCell>
        <mxCell id="exOUTJ8W9V4MgGw5Hsfr-84" value="1...1" style="edgeLabel;html=1;align=center;verticalAlign=middle;resizable=0;points=[];rotation=-30;movable=0;rotatable=0;deletable=0;editable=0;locked=1;connectable=0;" vertex="1" connectable="0" parent="VTHBUv3CJ-BWsmUmesXm-89">
          <mxGeometry x="-0.948" y="4" relative="1" as="geometry">
            <mxPoint x="3" y="-10" as="offset" />
          </mxGeometry>
        </mxCell>
        <mxCell id="VTHBUv3CJ-BWsmUmesXm-90" value="Manufactures" style="rhombus;whiteSpace=wrap;html=1;movable=0;resizable=0;rotatable=0;deletable=0;editable=0;locked=1;connectable=0;" parent="1" vertex="1">
          <mxGeometry x="1150" y="440" width="90" height="100" as="geometry" />
        </mxCell>
        <mxCell id="VTHBUv3CJ-BWsmUmesXm-91" value="" style="endArrow=classic;html=1;rounded=0;exitX=0;exitY=0.5;exitDx=0;exitDy=0;movable=0;resizable=0;rotatable=0;deletable=0;editable=0;locked=1;connectable=0;" parent="1" source="VTHBUv3CJ-BWsmUmesXm-90" edge="1">
          <mxGeometry width="50" height="50" relative="1" as="geometry">
            <mxPoint x="640" y="590" as="sourcePoint" />
            <mxPoint x="700" y="500" as="targetPoint" />
          </mxGeometry>
        </mxCell>
        <mxCell id="VTHBUv3CJ-BWsmUmesXm-93" value="has" style="rhombus;whiteSpace=wrap;html=1;movable=0;resizable=0;rotatable=0;deletable=0;editable=0;locked=1;connectable=0;" parent="1" vertex="1">
          <mxGeometry x="70" y="610" width="80" height="80" as="geometry" />
        </mxCell>
        <mxCell id="VTHBUv3CJ-BWsmUmesXm-95" value="Inventory" style="rounded=0;whiteSpace=wrap;html=1;movable=0;resizable=0;rotatable=0;deletable=0;editable=0;locked=1;connectable=0;" parent="1" vertex="1">
          <mxGeometry x="-110" y="620" width="120" height="60" as="geometry" />
        </mxCell>
        <mxCell id="VTHBUv3CJ-BWsmUmesXm-96" value="" style="endArrow=none;html=1;rounded=0;movable=0;resizable=0;rotatable=0;deletable=0;editable=0;locked=1;connectable=0;" parent="1" edge="1">
          <mxGeometry width="50" height="50" relative="1" as="geometry">
            <mxPoint y="620" as="sourcePoint" />
            <mxPoint x="40" y="580" as="targetPoint" />
          </mxGeometry>
        </mxCell>
        <mxCell id="VTHBUv3CJ-BWsmUmesXm-97" value="&lt;u&gt;InventoryID&lt;/u&gt;" style="ellipse;whiteSpace=wrap;html=1;movable=0;resizable=0;rotatable=0;deletable=0;editable=0;locked=1;connectable=0;" parent="1" vertex="1">
          <mxGeometry x="40" y="545" width="120" height="60" as="geometry" />
        </mxCell>
        <mxCell id="VTHBUv3CJ-BWsmUmesXm-98" value="" style="endArrow=none;html=1;rounded=0;movable=0;resizable=0;rotatable=0;deletable=0;editable=0;locked=1;connectable=0;" parent="1" target="VTHBUv3CJ-BWsmUmesXm-99" edge="1">
          <mxGeometry width="50" height="50" relative="1" as="geometry">
            <mxPoint x="-30" y="620" as="sourcePoint" />
            <mxPoint x="40" y="540" as="targetPoint" />
          </mxGeometry>
        </mxCell>
        <mxCell id="VTHBUv3CJ-BWsmUmesXm-99" value="TradeName" style="ellipse;whiteSpace=wrap;html=1;movable=0;resizable=0;rotatable=0;deletable=0;editable=0;locked=1;connectable=0;" parent="1" vertex="1">
          <mxGeometry x="20" y="490" width="120" height="50" as="geometry" />
        </mxCell>
        <mxCell id="VTHBUv3CJ-BWsmUmesXm-100" value="" style="endArrow=none;html=1;rounded=0;exitX=0.572;exitY=-0.011;exitDx=0;exitDy=0;exitPerimeter=0;movable=0;resizable=0;rotatable=0;deletable=0;editable=0;locked=1;connectable=0;" parent="1" source="VTHBUv3CJ-BWsmUmesXm-95" edge="1">
          <mxGeometry width="50" height="50" relative="1" as="geometry">
            <mxPoint x="-50" y="620" as="sourcePoint" />
            <mxPoint x="-40" y="580" as="targetPoint" />
          </mxGeometry>
        </mxCell>
        <mxCell id="VTHBUv3CJ-BWsmUmesXm-101" value="formula" style="ellipse;whiteSpace=wrap;html=1;movable=0;resizable=0;rotatable=0;deletable=0;editable=0;locked=1;connectable=0;" parent="1" vertex="1">
          <mxGeometry x="-80" y="550" width="80" height="30" as="geometry" />
        </mxCell>
        <mxCell id="VTHBUv3CJ-BWsmUmesXm-104" value="" style="endArrow=none;html=1;rounded=0;movable=0;resizable=0;rotatable=0;deletable=0;editable=0;locked=1;connectable=0;" parent="1" edge="1">
          <mxGeometry width="50" height="50" relative="1" as="geometry">
            <mxPoint x="-110" y="560" as="sourcePoint" />
            <mxPoint x="-70" y="620" as="targetPoint" />
          </mxGeometry>
        </mxCell>
        <mxCell id="VTHBUv3CJ-BWsmUmesXm-105" value="Quantity" style="ellipse;whiteSpace=wrap;html=1;movable=0;resizable=0;rotatable=0;deletable=0;editable=0;locked=1;connectable=0;" parent="1" vertex="1">
          <mxGeometry x="-180" y="520" width="100" height="42.5" as="geometry" />
        </mxCell>
        <mxCell id="VTHBUv3CJ-BWsmUmesXm-112" value="" style="endArrow=none;html=1;rounded=0;movable=0;resizable=0;rotatable=0;deletable=0;editable=0;locked=1;connectable=0;entryX=0;entryY=0;entryDx=0;entryDy=0;" parent="1" edge="1" target="VTHBUv3CJ-BWsmUmesXm-115">
          <mxGeometry width="50" height="50" relative="1" as="geometry">
            <mxPoint x="840" y="850" as="sourcePoint" />
            <mxPoint x="890" y="890" as="targetPoint" />
          </mxGeometry>
        </mxCell>
        <mxCell id="VTHBUv3CJ-BWsmUmesXm-113" value="" style="endArrow=none;html=1;rounded=0;exitX=0.25;exitY=1;exitDx=0;exitDy=0;movable=0;resizable=0;rotatable=0;deletable=0;editable=0;locked=1;connectable=0;" parent="1" target="VTHBUv3CJ-BWsmUmesXm-114" edge="1" source="VTHBUv3CJ-BWsmUmesXm-88">
          <mxGeometry width="50" height="50" relative="1" as="geometry">
            <mxPoint x="930" y="850" as="sourcePoint" />
            <mxPoint x="880" y="940" as="targetPoint" />
          </mxGeometry>
        </mxCell>
        <mxCell id="VTHBUv3CJ-BWsmUmesXm-114" value="CoName" style="ellipse;whiteSpace=wrap;html=1;movable=0;resizable=0;rotatable=0;deletable=0;editable=0;locked=1;connectable=0;" parent="1" vertex="1">
          <mxGeometry x="740" y="895" width="120" height="50" as="geometry" />
        </mxCell>
        <mxCell id="VTHBUv3CJ-BWsmUmesXm-115" value="&lt;u&gt;CompanyPhoneNo&lt;/u&gt;" style="ellipse;whiteSpace=wrap;html=1;movable=0;resizable=0;rotatable=0;deletable=0;editable=0;locked=1;connectable=0;" parent="1" vertex="1">
          <mxGeometry x="870" y="880" width="120" height="40" as="geometry" />
        </mxCell>
        <mxCell id="VTHBUv3CJ-BWsmUmesXm-123" value="" style="endArrow=classic;html=1;rounded=0;entryX=1;entryY=0.5;entryDx=0;entryDy=0;exitX=0;exitY=0.5;exitDx=0;exitDy=0;movable=0;resizable=0;rotatable=0;deletable=0;editable=0;locked=1;connectable=0;" parent="1" target="VTHBUv3CJ-BWsmUmesXm-124" edge="1">
          <mxGeometry width="50" height="50" relative="1" as="geometry">
            <mxPoint x="190" y="209.5" as="sourcePoint" />
            <mxPoint x="75" y="209.5" as="targetPoint" />
          </mxGeometry>
        </mxCell>
        <mxCell id="VTHBUv3CJ-BWsmUmesXm-124" value="has" style="rhombus;whiteSpace=wrap;html=1;movable=0;resizable=0;rotatable=0;deletable=0;editable=0;locked=1;connectable=0;" parent="1" vertex="1">
          <mxGeometry x="-10" y="170" width="80" height="80" as="geometry" />
        </mxCell>
        <mxCell id="VTHBUv3CJ-BWsmUmesXm-125" value="" style="endArrow=classic;html=1;rounded=0;entryX=1;entryY=0.5;entryDx=0;entryDy=0;exitX=0;exitY=0.5;exitDx=0;exitDy=0;movable=0;resizable=0;rotatable=0;deletable=0;editable=0;locked=1;connectable=0;" parent="1" edge="1">
          <mxGeometry width="50" height="50" relative="1" as="geometry">
            <mxPoint x="-10" y="209.5" as="sourcePoint" />
            <mxPoint x="-130" y="210" as="targetPoint" />
          </mxGeometry>
        </mxCell>
        <mxCell id="VTHBUv3CJ-BWsmUmesXm-126" value="Insurance" style="rounded=0;whiteSpace=wrap;html=1;movable=0;resizable=0;rotatable=0;deletable=0;editable=0;locked=1;connectable=0;" parent="1" vertex="1">
          <mxGeometry x="-250" y="180" width="120" height="60" as="geometry" />
        </mxCell>
        <mxCell id="VTHBUv3CJ-BWsmUmesXm-127" value="" style="endArrow=none;html=1;rounded=0;movable=0;resizable=0;rotatable=0;deletable=0;editable=0;locked=1;connectable=0;" parent="1" target="VTHBUv3CJ-BWsmUmesXm-128" edge="1">
          <mxGeometry width="50" height="50" relative="1" as="geometry">
            <mxPoint x="-150" y="180" as="sourcePoint" />
            <mxPoint x="-100" y="130" as="targetPoint" />
          </mxGeometry>
        </mxCell>
        <mxCell id="VTHBUv3CJ-BWsmUmesXm-128" value="&lt;u&gt;InsuranceNo&lt;/u&gt;" style="ellipse;whiteSpace=wrap;html=1;movable=0;resizable=0;rotatable=0;deletable=0;editable=0;locked=1;connectable=0;" parent="1" vertex="1">
          <mxGeometry x="-140" y="110" width="120" height="40" as="geometry" />
        </mxCell>
        <mxCell id="VTHBUv3CJ-BWsmUmesXm-129" value="" style="endArrow=none;html=1;rounded=0;movable=0;resizable=0;rotatable=0;deletable=0;editable=0;locked=1;connectable=0;" parent="1" target="VTHBUv3CJ-BWsmUmesXm-130" edge="1">
          <mxGeometry width="50" height="50" relative="1" as="geometry">
            <mxPoint x="-200" y="180" as="sourcePoint" />
            <mxPoint x="-200" y="110" as="targetPoint" />
          </mxGeometry>
        </mxCell>
        <mxCell id="VTHBUv3CJ-BWsmUmesXm-130" value="fname" style="ellipse;whiteSpace=wrap;html=1;movable=0;resizable=0;rotatable=0;deletable=0;editable=0;locked=1;connectable=0;" parent="1" vertex="1">
          <mxGeometry x="-250" y="60" width="120" height="50" as="geometry" />
        </mxCell>
        <mxCell id="VTHBUv3CJ-BWsmUmesXm-131" value="" style="endArrow=none;html=1;rounded=0;movable=0;resizable=0;rotatable=0;deletable=0;editable=0;locked=1;connectable=0;" parent="1" edge="1">
          <mxGeometry width="50" height="50" relative="1" as="geometry">
            <mxPoint x="-240" y="180" as="sourcePoint" />
            <mxPoint x="-250" y="150" as="targetPoint" />
          </mxGeometry>
        </mxCell>
        <mxCell id="VTHBUv3CJ-BWsmUmesXm-133" value="lname" style="ellipse;whiteSpace=wrap;html=1;movable=0;resizable=0;rotatable=0;deletable=0;editable=0;locked=1;connectable=0;" parent="1" vertex="1">
          <mxGeometry x="-340" y="110" width="120" height="45" as="geometry" />
        </mxCell>
        <mxCell id="VTHBUv3CJ-BWsmUmesXm-134" value="" style="endArrow=none;html=1;rounded=0;movable=0;resizable=0;rotatable=0;deletable=0;editable=0;locked=1;connectable=0;" parent="1" target="VTHBUv3CJ-BWsmUmesXm-135" edge="1">
          <mxGeometry width="50" height="50" relative="1" as="geometry">
            <mxPoint x="-190" y="180" as="sourcePoint" />
            <mxPoint x="-100" y="60" as="targetPoint" />
          </mxGeometry>
        </mxCell>
        <mxCell id="VTHBUv3CJ-BWsmUmesXm-135" value="InsuranceCompany" style="ellipse;whiteSpace=wrap;html=1;movable=0;resizable=0;rotatable=0;deletable=0;editable=0;locked=1;connectable=0;" parent="1" vertex="1">
          <mxGeometry x="-130" y="20" width="120" height="40" as="geometry" />
        </mxCell>
        <mxCell id="VTHBUv3CJ-BWsmUmesXm-137" value="" style="endArrow=none;html=1;rounded=0;exitX=0;exitY=0.25;exitDx=0;exitDy=0;movable=0;resizable=0;rotatable=0;deletable=0;editable=0;locked=1;connectable=0;" parent="1" source="VTHBUv3CJ-BWsmUmesXm-126" target="VTHBUv3CJ-BWsmUmesXm-138" edge="1">
          <mxGeometry width="50" height="50" relative="1" as="geometry">
            <mxPoint x="-370" y="140" as="sourcePoint" />
            <mxPoint x="-250" y="197.5" as="targetPoint" />
          </mxGeometry>
        </mxCell>
        <mxCell id="VTHBUv3CJ-BWsmUmesXm-138" value="SSN" style="ellipse;whiteSpace=wrap;html=1;movable=0;resizable=0;rotatable=0;deletable=0;editable=0;locked=1;connectable=0;" parent="1" vertex="1">
          <mxGeometry x="-460" y="160" width="120" height="55" as="geometry" />
        </mxCell>
        <mxCell id="exOUTJ8W9V4MgGw5Hsfr-1" value="" style="endArrow=none;html=1;rounded=0;movable=0;resizable=0;rotatable=0;deletable=0;editable=0;locked=1;connectable=0;" edge="1" parent="1" target="exOUTJ8W9V4MgGw5Hsfr-2">
          <mxGeometry width="50" height="50" relative="1" as="geometry">
            <mxPoint x="620" y="180" as="sourcePoint" />
            <mxPoint x="700" y="90" as="targetPoint" />
          </mxGeometry>
        </mxCell>
        <mxCell id="exOUTJ8W9V4MgGw5Hsfr-2" value="Specialty" style="ellipse;whiteSpace=wrap;html=1;movable=0;resizable=0;rotatable=0;deletable=0;editable=0;locked=1;connectable=0;" vertex="1" parent="1">
          <mxGeometry x="710" y="70" width="120" height="50" as="geometry" />
        </mxCell>
        <mxCell id="exOUTJ8W9V4MgGw5Hsfr-3" value="" style="endArrow=none;html=1;rounded=0;movable=0;resizable=0;rotatable=0;deletable=0;editable=0;locked=1;connectable=0;" edge="1" parent="1" target="exOUTJ8W9V4MgGw5Hsfr-4">
          <mxGeometry width="50" height="50" relative="1" as="geometry">
            <mxPoint x="605" y="180" as="sourcePoint" />
            <mxPoint x="655" y="130" as="targetPoint" />
          </mxGeometry>
        </mxCell>
        <mxCell id="exOUTJ8W9V4MgGw5Hsfr-4" value="Years of Experience" style="ellipse;whiteSpace=wrap;html=1;movable=0;resizable=0;rotatable=0;deletable=0;editable=0;locked=1;connectable=0;" vertex="1" parent="1">
          <mxGeometry x="610" y="10" width="120" height="60" as="geometry" />
        </mxCell>
        <mxCell id="exOUTJ8W9V4MgGw5Hsfr-5" value="" style="endArrow=none;html=1;rounded=0;entryX=0.378;entryY=0.022;entryDx=0;entryDy=0;entryPerimeter=0;" edge="1" parent="1" target="VTHBUv3CJ-BWsmUmesXm-1">
          <mxGeometry width="50" height="50" relative="1" as="geometry">
            <mxPoint x="150" y="60" as="sourcePoint" />
            <mxPoint x="230" y="170" as="targetPoint" />
            <Array as="points" />
          </mxGeometry>
        </mxCell>
        <mxCell id="exOUTJ8W9V4MgGw5Hsfr-7" value="DSSN" style="ellipse;whiteSpace=wrap;html=1;movable=0;resizable=0;rotatable=0;deletable=0;editable=0;locked=1;connectable=0;" vertex="1" parent="1">
          <mxGeometry x="40" y="20" width="120" height="50" as="geometry" />
        </mxCell>
        <mxCell id="exOUTJ8W9V4MgGw5Hsfr-8" value="" style="endArrow=none;html=1;rounded=0;" edge="1" parent="1">
          <mxGeometry width="50" height="50" relative="1" as="geometry">
            <mxPoint x="500" y="395" as="sourcePoint" />
            <mxPoint x="610" y="370" as="targetPoint" />
          </mxGeometry>
        </mxCell>
        <mxCell id="exOUTJ8W9V4MgGw5Hsfr-9" value="SSN&lt;br&gt;" style="ellipse;whiteSpace=wrap;html=1;movable=0;resizable=0;rotatable=0;deletable=0;editable=0;locked=1;connectable=0;" vertex="1" parent="1">
          <mxGeometry x="380" y="370" width="120" height="50" as="geometry" />
        </mxCell>
        <mxCell id="exOUTJ8W9V4MgGw5Hsfr-18" value="" style="endArrow=classic;html=1;rounded=0;entryX=1;entryY=0.5;entryDx=0;entryDy=0;exitX=0;exitY=0.5;exitDx=0;exitDy=0;movable=0;resizable=0;rotatable=0;deletable=0;editable=0;locked=1;connectable=0;" edge="1" parent="1" source="VTHBUv3CJ-BWsmUmesXm-61" target="VTHBUv3CJ-BWsmUmesXm-93">
          <mxGeometry width="50" height="50" relative="1" as="geometry">
            <mxPoint x="200" y="680" as="sourcePoint" />
            <mxPoint x="250" y="630" as="targetPoint" />
          </mxGeometry>
        </mxCell>
        <mxCell id="exOUTJ8W9V4MgGw5Hsfr-19" value="" style="endArrow=classic;html=1;rounded=0;entryX=1;entryY=0.5;entryDx=0;entryDy=0;exitX=0;exitY=0.5;exitDx=0;exitDy=0;movable=0;resizable=0;rotatable=0;deletable=0;editable=0;locked=1;connectable=0;" edge="1" parent="1" source="VTHBUv3CJ-BWsmUmesXm-93" target="VTHBUv3CJ-BWsmUmesXm-95">
          <mxGeometry width="50" height="50" relative="1" as="geometry">
            <mxPoint x="200" y="680" as="sourcePoint" />
            <mxPoint x="250" y="630" as="targetPoint" />
          </mxGeometry>
        </mxCell>
        <mxCell id="exOUTJ8W9V4MgGw5Hsfr-20" value="" style="endArrow=none;html=1;rounded=0;entryX=0.25;entryY=0;entryDx=0;entryDy=0;movable=0;resizable=0;rotatable=0;deletable=0;editable=0;locked=1;connectable=0;" edge="1" parent="1" target="VTHBUv3CJ-BWsmUmesXm-76">
          <mxGeometry width="50" height="50" relative="1" as="geometry">
            <mxPoint x="140" y="890" as="sourcePoint" />
            <mxPoint x="190" y="840" as="targetPoint" />
          </mxGeometry>
        </mxCell>
        <mxCell id="exOUTJ8W9V4MgGw5Hsfr-21" value="PharName" style="ellipse;whiteSpace=wrap;html=1;movable=0;resizable=0;rotatable=0;deletable=0;editable=0;locked=1;connectable=0;" vertex="1" parent="1">
          <mxGeometry x="20" y="865" width="120" height="45" as="geometry" />
        </mxCell>
        <mxCell id="exOUTJ8W9V4MgGw5Hsfr-22" value="" style="endArrow=none;html=1;rounded=0;movable=0;resizable=0;rotatable=0;deletable=0;editable=0;locked=1;connectable=0;" edge="1" parent="1" target="exOUTJ8W9V4MgGw5Hsfr-23">
          <mxGeometry width="50" height="50" relative="1" as="geometry">
            <mxPoint x="290" y="920" as="sourcePoint" />
            <mxPoint x="330" y="900" as="targetPoint" />
          </mxGeometry>
        </mxCell>
        <mxCell id="exOUTJ8W9V4MgGw5Hsfr-23" value="PharPhoneNo" style="ellipse;whiteSpace=wrap;html=1;movable=0;resizable=0;rotatable=0;deletable=0;editable=0;locked=1;connectable=0;" vertex="1" parent="1">
          <mxGeometry x="340" y="880" width="120" height="40" as="geometry" />
        </mxCell>
        <mxCell id="exOUTJ8W9V4MgGw5Hsfr-25" value="" style="endArrow=none;html=1;rounded=0;movable=0;resizable=0;rotatable=0;deletable=0;editable=0;locked=1;connectable=0;" edge="1" parent="1" target="exOUTJ8W9V4MgGw5Hsfr-28">
          <mxGeometry width="50" height="50" relative="1" as="geometry">
            <mxPoint x="690" y="640" as="sourcePoint" />
            <mxPoint x="720" y="620" as="targetPoint" />
          </mxGeometry>
        </mxCell>
        <mxCell id="exOUTJ8W9V4MgGw5Hsfr-26" value="" style="endArrow=none;html=1;rounded=0;movable=0;resizable=0;rotatable=0;deletable=0;editable=0;locked=1;connectable=0;" edge="1" parent="1" target="exOUTJ8W9V4MgGw5Hsfr-29">
          <mxGeometry width="50" height="50" relative="1" as="geometry">
            <mxPoint x="680" y="630" as="sourcePoint" />
            <mxPoint x="730" y="580" as="targetPoint" />
          </mxGeometry>
        </mxCell>
        <mxCell id="exOUTJ8W9V4MgGw5Hsfr-28" value="TradeName" style="ellipse;whiteSpace=wrap;html=1;movable=0;resizable=0;rotatable=0;deletable=0;editable=0;locked=1;connectable=0;" vertex="1" parent="1">
          <mxGeometry x="750" y="610" width="120" height="60" as="geometry" />
        </mxCell>
        <mxCell id="exOUTJ8W9V4MgGw5Hsfr-29" value="Price" style="ellipse;whiteSpace=wrap;html=1;movable=0;resizable=0;rotatable=0;deletable=0;editable=0;locked=1;connectable=0;" vertex="1" parent="1">
          <mxGeometry x="680" y="542.5" width="120" height="55" as="geometry" />
        </mxCell>
        <mxCell id="exOUTJ8W9V4MgGw5Hsfr-30" value="" style="endArrow=none;html=1;rounded=0;entryX=0.352;entryY=0.125;entryDx=0;entryDy=0;entryPerimeter=0;movable=0;resizable=0;rotatable=0;deletable=0;editable=0;locked=1;connectable=0;" edge="1" parent="1" target="VTHBUv3CJ-BWsmUmesXm-59">
          <mxGeometry width="50" height="50" relative="1" as="geometry">
            <mxPoint x="620" y="600" as="sourcePoint" />
            <mxPoint x="620" y="562.5" as="targetPoint" />
          </mxGeometry>
        </mxCell>
        <mxCell id="exOUTJ8W9V4MgGw5Hsfr-31" value="&lt;u&gt;SaleID&lt;br&gt;&lt;/u&gt;" style="ellipse;whiteSpace=wrap;html=1;movable=0;resizable=0;rotatable=0;deletable=0;editable=0;locked=1;connectable=0;" vertex="1" parent="1">
          <mxGeometry x="530" y="560" width="120" height="45" as="geometry" />
        </mxCell>
        <mxCell id="exOUTJ8W9V4MgGw5Hsfr-32" value="" style="endArrow=none;html=1;rounded=0;" edge="1" parent="1" source="VTHBUv3CJ-BWsmUmesXm-12" target="exOUTJ8W9V4MgGw5Hsfr-33">
          <mxGeometry width="50" height="50" relative="1" as="geometry">
            <mxPoint x="670" y="450" as="sourcePoint" />
            <mxPoint x="860" y="360" as="targetPoint" />
            <Array as="points">
              <mxPoint x="720" y="380" />
            </Array>
          </mxGeometry>
        </mxCell>
        <mxCell id="exOUTJ8W9V4MgGw5Hsfr-33" value="Date" style="ellipse;whiteSpace=wrap;html=1;movable=0;resizable=0;rotatable=0;deletable=0;editable=0;locked=1;connectable=0;" vertex="1" parent="1">
          <mxGeometry x="900" y="330" width="90" height="60" as="geometry" />
        </mxCell>
        <mxCell id="exOUTJ8W9V4MgGw5Hsfr-36" value="" style="endArrow=none;html=1;rounded=0;" edge="1" parent="1" target="exOUTJ8W9V4MgGw5Hsfr-37">
          <mxGeometry width="50" height="50" relative="1" as="geometry">
            <mxPoint x="660" y="480" as="sourcePoint" />
            <mxPoint x="690" y="450" as="targetPoint" />
          </mxGeometry>
        </mxCell>
        <mxCell id="exOUTJ8W9V4MgGw5Hsfr-37" value="CompanyPhoneNo" style="ellipse;whiteSpace=wrap;html=1;movable=0;resizable=0;rotatable=0;deletable=0;editable=0;locked=1;connectable=0;" vertex="1" parent="1">
          <mxGeometry x="650" y="400" width="120" height="50" as="geometry" />
        </mxCell>
        <mxCell id="exOUTJ8W9V4MgGw5Hsfr-38" value="" style="endArrow=none;html=1;rounded=0;entryX=0.072;entryY=-0.011;entryDx=0;entryDy=0;entryPerimeter=0;" edge="1" parent="1" target="VTHBUv3CJ-BWsmUmesXm-13">
          <mxGeometry width="50" height="50" relative="1" as="geometry">
            <mxPoint x="543.4798553832034" y="462.4476385399089" as="sourcePoint" />
            <mxPoint x="555" y="400" as="targetPoint" />
          </mxGeometry>
        </mxCell>
        <mxCell id="exOUTJ8W9V4MgGw5Hsfr-42" value="CoName" style="ellipse;whiteSpace=wrap;html=1;movable=0;resizable=0;rotatable=0;deletable=0;editable=0;locked=1;connectable=0;" vertex="1" parent="1">
          <mxGeometry x="470" y="430" width="100" height="35" as="geometry" />
        </mxCell>
        <mxCell id="exOUTJ8W9V4MgGw5Hsfr-45" value="" style="endArrow=none;html=1;rounded=0;entryX=0;entryY=1;entryDx=0;entryDy=0;movable=0;resizable=0;rotatable=0;deletable=0;editable=0;locked=1;connectable=0;" edge="1" parent="1" target="VTHBUv3CJ-BWsmUmesXm-83">
          <mxGeometry width="50" height="50" relative="1" as="geometry">
            <mxPoint x="270" y="920" as="sourcePoint" />
            <mxPoint x="320" y="870" as="targetPoint" />
          </mxGeometry>
        </mxCell>
        <mxCell id="exOUTJ8W9V4MgGw5Hsfr-49" value="" style="endArrow=classic;html=1;rounded=0;exitX=0.5;exitY=1;exitDx=0;exitDy=0;movable=0;resizable=0;rotatable=0;deletable=0;editable=0;locked=1;connectable=0;" edge="1" parent="1" source="VTHBUv3CJ-BWsmUmesXm-86">
          <mxGeometry width="50" height="50" relative="1" as="geometry">
            <mxPoint x="450" y="1130" as="sourcePoint" />
            <mxPoint x="565" y="1190" as="targetPoint" />
          </mxGeometry>
        </mxCell>
        <mxCell id="exOUTJ8W9V4MgGw5Hsfr-51" value="Contract" style="rounded=0;whiteSpace=wrap;html=1;movable=0;resizable=0;rotatable=0;deletable=0;editable=0;locked=1;connectable=0;" vertex="1" parent="1">
          <mxGeometry x="510" y="1190" width="120" height="60" as="geometry" />
        </mxCell>
        <mxCell id="exOUTJ8W9V4MgGw5Hsfr-52" value="" style="endArrow=classic;html=1;rounded=0;movable=0;resizable=0;rotatable=0;deletable=0;editable=0;locked=1;connectable=0;" edge="1" parent="1">
          <mxGeometry width="50" height="50" relative="1" as="geometry">
            <mxPoint x="720" y="1220" as="sourcePoint" />
            <mxPoint x="630" y="1220" as="targetPoint" />
          </mxGeometry>
        </mxCell>
        <mxCell id="exOUTJ8W9V4MgGw5Hsfr-53" value="supervises" style="rhombus;whiteSpace=wrap;html=1;movable=0;resizable=0;rotatable=0;deletable=0;editable=0;locked=1;connectable=0;" vertex="1" parent="1">
          <mxGeometry x="720" y="1180" width="80" height="80" as="geometry" />
        </mxCell>
        <mxCell id="exOUTJ8W9V4MgGw5Hsfr-54" value="" style="endArrow=classic;html=1;rounded=0;entryX=1;entryY=0.5;entryDx=0;entryDy=0;movable=0;resizable=0;rotatable=0;deletable=0;editable=0;locked=1;connectable=0;" edge="1" parent="1" target="exOUTJ8W9V4MgGw5Hsfr-53">
          <mxGeometry width="50" height="50" relative="1" as="geometry">
            <mxPoint x="880" y="1220" as="sourcePoint" />
            <mxPoint x="830" y="1110" as="targetPoint" />
          </mxGeometry>
        </mxCell>
        <mxCell id="exOUTJ8W9V4MgGw5Hsfr-55" value="Supervisor" style="rounded=0;whiteSpace=wrap;html=1;movable=0;resizable=0;rotatable=0;deletable=0;editable=0;locked=1;connectable=0;" vertex="1" parent="1">
          <mxGeometry x="880" y="1190" width="100" height="60" as="geometry" />
        </mxCell>
        <mxCell id="exOUTJ8W9V4MgGw5Hsfr-56" value="" style="endArrow=none;html=1;rounded=0;entryX=0.083;entryY=0.789;entryDx=0;entryDy=0;entryPerimeter=0;movable=0;resizable=0;rotatable=0;deletable=0;editable=0;locked=1;connectable=0;" edge="1" parent="1" target="exOUTJ8W9V4MgGw5Hsfr-66">
          <mxGeometry width="50" height="50" relative="1" as="geometry">
            <mxPoint x="960" y="1190" as="sourcePoint" />
            <mxPoint x="1010" y="1140" as="targetPoint" />
          </mxGeometry>
        </mxCell>
        <mxCell id="exOUTJ8W9V4MgGw5Hsfr-59" value="" style="endArrow=none;html=1;rounded=0;entryX=0.078;entryY=0.773;entryDx=0;entryDy=0;entryPerimeter=0;movable=0;resizable=0;rotatable=0;deletable=0;editable=0;locked=1;connectable=0;" edge="1" parent="1" target="exOUTJ8W9V4MgGw5Hsfr-65">
          <mxGeometry width="50" height="50" relative="1" as="geometry">
            <mxPoint x="940" y="1190" as="sourcePoint" />
            <mxPoint x="1020" y="1090" as="targetPoint" />
          </mxGeometry>
        </mxCell>
        <mxCell id="exOUTJ8W9V4MgGw5Hsfr-60" value="" style="endArrow=none;html=1;rounded=0;entryX=0.5;entryY=1;entryDx=0;entryDy=0;movable=0;resizable=0;rotatable=0;deletable=0;editable=0;locked=1;connectable=0;" edge="1" parent="1" target="exOUTJ8W9V4MgGw5Hsfr-64">
          <mxGeometry width="50" height="50" relative="1" as="geometry">
            <mxPoint x="930" y="1190" as="sourcePoint" />
            <mxPoint x="970" y="1060" as="targetPoint" />
          </mxGeometry>
        </mxCell>
        <mxCell id="exOUTJ8W9V4MgGw5Hsfr-61" value="" style="endArrow=none;html=1;rounded=0;exitX=0.25;exitY=0;exitDx=0;exitDy=0;movable=0;resizable=0;rotatable=0;deletable=0;editable=0;locked=1;connectable=0;" edge="1" parent="1" source="exOUTJ8W9V4MgGw5Hsfr-55" target="exOUTJ8W9V4MgGw5Hsfr-63">
          <mxGeometry width="50" height="50" relative="1" as="geometry">
            <mxPoint x="630" y="1160" as="sourcePoint" />
            <mxPoint x="810" y="1080" as="targetPoint" />
          </mxGeometry>
        </mxCell>
        <mxCell id="exOUTJ8W9V4MgGw5Hsfr-63" value="ContractId" style="ellipse;whiteSpace=wrap;html=1;movable=0;resizable=0;rotatable=0;deletable=0;editable=0;locked=1;connectable=0;" vertex="1" parent="1">
          <mxGeometry x="760" y="1120" width="120" height="40" as="geometry" />
        </mxCell>
        <mxCell id="exOUTJ8W9V4MgGw5Hsfr-64" value="&lt;u&gt;SupervisorID&lt;/u&gt;" style="ellipse;whiteSpace=wrap;html=1;movable=0;resizable=0;rotatable=0;deletable=0;editable=0;locked=1;connectable=0;" vertex="1" parent="1">
          <mxGeometry x="860" y="1080" width="120" height="50" as="geometry" />
        </mxCell>
        <mxCell id="exOUTJ8W9V4MgGw5Hsfr-65" value="lname" style="ellipse;whiteSpace=wrap;html=1;movable=0;resizable=0;rotatable=0;deletable=0;editable=0;locked=1;connectable=0;" vertex="1" parent="1">
          <mxGeometry x="1010" y="1060" width="120" height="50" as="geometry" />
        </mxCell>
        <mxCell id="exOUTJ8W9V4MgGw5Hsfr-66" value="fname" style="ellipse;whiteSpace=wrap;html=1;movable=0;resizable=0;rotatable=0;deletable=0;editable=0;locked=1;connectable=0;" vertex="1" parent="1">
          <mxGeometry x="1010" y="1130" width="120" height="60" as="geometry" />
        </mxCell>
        <mxCell id="exOUTJ8W9V4MgGw5Hsfr-67" value="" style="endArrow=none;html=1;rounded=0;movable=0;resizable=0;rotatable=0;deletable=0;editable=0;locked=1;connectable=0;" edge="1" parent="1" target="exOUTJ8W9V4MgGw5Hsfr-68">
          <mxGeometry width="50" height="50" relative="1" as="geometry">
            <mxPoint x="620" y="1190" as="sourcePoint" />
            <mxPoint x="670" y="1140" as="targetPoint" />
          </mxGeometry>
        </mxCell>
        <mxCell id="exOUTJ8W9V4MgGw5Hsfr-68" value="&lt;u&gt;ContractId&lt;/u&gt;" style="ellipse;whiteSpace=wrap;html=1;movable=0;resizable=0;rotatable=0;deletable=0;editable=0;locked=1;connectable=0;" vertex="1" parent="1">
          <mxGeometry x="630" y="1120" width="120" height="50" as="geometry" />
        </mxCell>
        <mxCell id="exOUTJ8W9V4MgGw5Hsfr-69" value="" style="endArrow=none;html=1;rounded=0;movable=0;resizable=0;rotatable=0;deletable=0;editable=0;locked=1;connectable=0;" edge="1" parent="1" target="exOUTJ8W9V4MgGw5Hsfr-70">
          <mxGeometry width="50" height="50" relative="1" as="geometry">
            <mxPoint x="570" y="1190" as="sourcePoint" />
            <mxPoint x="640" y="1100" as="targetPoint" />
          </mxGeometry>
        </mxCell>
        <mxCell id="exOUTJ8W9V4MgGw5Hsfr-70" value="CompanyPhoneNo" style="ellipse;whiteSpace=wrap;html=1;movable=0;resizable=0;rotatable=0;deletable=0;editable=0;locked=1;connectable=0;" vertex="1" parent="1">
          <mxGeometry x="630" y="1040" width="120" height="60" as="geometry" />
        </mxCell>
        <mxCell id="exOUTJ8W9V4MgGw5Hsfr-71" value="" style="endArrow=none;html=1;rounded=0;exitX=0.769;exitY=0.933;exitDx=0;exitDy=0;exitPerimeter=0;movable=0;resizable=0;rotatable=0;deletable=0;editable=0;locked=1;connectable=0;" edge="1" parent="1" source="exOUTJ8W9V4MgGw5Hsfr-72" target="exOUTJ8W9V4MgGw5Hsfr-51">
          <mxGeometry width="50" height="50" relative="1" as="geometry">
            <mxPoint x="510" y="1130" as="sourcePoint" />
            <mxPoint x="570" y="980" as="targetPoint" />
          </mxGeometry>
        </mxCell>
        <mxCell id="exOUTJ8W9V4MgGw5Hsfr-72" value="SupervisorID" style="ellipse;whiteSpace=wrap;html=1;movable=0;resizable=0;rotatable=0;deletable=0;editable=0;locked=1;connectable=0;" vertex="1" parent="1">
          <mxGeometry x="460" y="1090" width="90" height="40" as="geometry" />
        </mxCell>
        <mxCell id="exOUTJ8W9V4MgGw5Hsfr-74" value="" style="endArrow=none;html=1;rounded=0;entryX=0.25;entryY=0;entryDx=0;entryDy=0;exitX=1;exitY=1;exitDx=0;exitDy=0;movable=0;resizable=0;rotatable=0;deletable=0;editable=0;locked=1;connectable=0;" edge="1" parent="1" source="exOUTJ8W9V4MgGw5Hsfr-75" target="exOUTJ8W9V4MgGw5Hsfr-51">
          <mxGeometry width="50" height="50" relative="1" as="geometry">
            <mxPoint x="480" y="1160" as="sourcePoint" />
            <mxPoint x="500" y="980" as="targetPoint" />
          </mxGeometry>
        </mxCell>
        <mxCell id="exOUTJ8W9V4MgGw5Hsfr-75" value="PharPhoneNo" style="ellipse;whiteSpace=wrap;html=1;movable=0;resizable=0;rotatable=0;deletable=0;editable=0;locked=1;connectable=0;" vertex="1" parent="1">
          <mxGeometry x="380" y="1130" width="120" height="50" as="geometry" />
        </mxCell>
        <mxCell id="exOUTJ8W9V4MgGw5Hsfr-78" value="" style="endArrow=none;html=1;rounded=0;movable=0;resizable=0;rotatable=0;deletable=0;editable=0;locked=1;connectable=0;" edge="1" parent="1">
          <mxGeometry width="50" height="50" relative="1" as="geometry">
            <mxPoint x="480" y="1300" as="sourcePoint" />
            <mxPoint x="530" y="1250" as="targetPoint" />
          </mxGeometry>
        </mxCell>
        <mxCell id="exOUTJ8W9V4MgGw5Hsfr-79" value="" style="endArrow=none;html=1;rounded=0;exitX=0.75;exitY=1;exitDx=0;exitDy=0;entryX=0;entryY=0.5;entryDx=0;entryDy=0;movable=0;resizable=0;rotatable=0;deletable=0;editable=0;locked=1;connectable=0;" edge="1" parent="1" source="exOUTJ8W9V4MgGw5Hsfr-51" target="exOUTJ8W9V4MgGw5Hsfr-83">
          <mxGeometry width="50" height="50" relative="1" as="geometry">
            <mxPoint x="600" y="1330" as="sourcePoint" />
            <mxPoint x="660" y="1300" as="targetPoint" />
          </mxGeometry>
        </mxCell>
        <mxCell id="exOUTJ8W9V4MgGw5Hsfr-80" value="" style="endArrow=none;html=1;rounded=0;movable=0;resizable=0;rotatable=0;deletable=0;editable=0;locked=1;connectable=0;" edge="1" parent="1">
          <mxGeometry width="50" height="50" relative="1" as="geometry">
            <mxPoint x="570" y="1350" as="sourcePoint" />
            <mxPoint x="570" y="1250" as="targetPoint" />
          </mxGeometry>
        </mxCell>
        <mxCell id="exOUTJ8W9V4MgGw5Hsfr-81" value="StartDate" style="ellipse;whiteSpace=wrap;html=1;movable=0;resizable=0;rotatable=0;deletable=0;editable=0;locked=1;connectable=0;" vertex="1" parent="1">
          <mxGeometry x="390" y="1290" width="110" height="70" as="geometry" />
        </mxCell>
        <mxCell id="exOUTJ8W9V4MgGw5Hsfr-82" value="EndDate" style="ellipse;whiteSpace=wrap;html=1;movable=0;resizable=0;rotatable=0;deletable=0;editable=0;locked=1;connectable=0;" vertex="1" parent="1">
          <mxGeometry x="510" y="1340" width="120" height="80" as="geometry" />
        </mxCell>
        <mxCell id="exOUTJ8W9V4MgGw5Hsfr-83" value="Text of the Contract" style="ellipse;whiteSpace=wrap;html=1;movable=0;resizable=0;rotatable=0;deletable=0;editable=0;locked=1;connectable=0;" vertex="1" parent="1">
          <mxGeometry x="660" y="1260" width="120" height="80" as="geometry" />
        </mxCell>
        <mxCell id="exOUTJ8W9V4MgGw5Hsfr-85" value="1...*" style="text;html=1;align=center;verticalAlign=middle;resizable=0;points=[];autosize=1;strokeColor=none;fillColor=none;movable=0;rotatable=0;deletable=0;editable=0;locked=1;connectable=0;" vertex="1" parent="1">
          <mxGeometry x="700" y="478" width="40" height="30" as="geometry" />
        </mxCell>
        <mxCell id="exOUTJ8W9V4MgGw5Hsfr-86" value="1...*&lt;br&gt;" style="text;html=1;align=center;verticalAlign=middle;resizable=0;points=[];autosize=1;strokeColor=none;fillColor=none;" vertex="1" parent="1">
          <mxGeometry x="530" y="190" width="40" height="30" as="geometry" />
        </mxCell>
        <mxCell id="exOUTJ8W9V4MgGw5Hsfr-87" value="1...*" style="text;html=1;align=center;verticalAlign=middle;resizable=0;points=[];autosize=1;strokeColor=none;fillColor=none;movable=0;rotatable=0;deletable=0;editable=0;locked=1;connectable=0;" vertex="1" parent="1">
          <mxGeometry x="310" y="185" width="40" height="30" as="geometry" />
        </mxCell>
        <mxCell id="exOUTJ8W9V4MgGw5Hsfr-88" value="1...*" style="text;html=1;align=center;verticalAlign=middle;resizable=0;points=[];autosize=1;strokeColor=none;fillColor=none;movable=0;rotatable=0;deletable=0;editable=0;locked=1;connectable=0;" vertex="1" parent="1">
          <mxGeometry x="370" y="625" width="40" height="30" as="geometry" />
        </mxCell>
        <mxCell id="exOUTJ8W9V4MgGw5Hsfr-89" value="" style="endArrow=none;html=1;rounded=0;exitX=0;exitY=0;exitDx=0;exitDy=0;entryX=0.783;entryY=0.921;entryDx=0;entryDy=0;entryPerimeter=0;" edge="1" parent="1" source="VTHBUv3CJ-BWsmUmesXm-126" target="exOUTJ8W9V4MgGw5Hsfr-91">
          <mxGeometry width="50" height="50" relative="1" as="geometry">
            <mxPoint x="-70" y="180" as="sourcePoint" />
            <mxPoint x="-305" y="165.33333333333337" as="targetPoint" />
          </mxGeometry>
        </mxCell>
        <mxCell id="exOUTJ8W9V4MgGw5Hsfr-91" value="Percentage&amp;nbsp;&lt;br&gt;Deducted" style="ellipse;whiteSpace=wrap;html=1;movable=0;resizable=0;rotatable=0;deletable=0;editable=0;locked=1;connectable=0;" vertex="1" parent="1">
          <mxGeometry x="-490" y="80" width="120" height="55" as="geometry" />
        </mxCell>
        <mxCell id="exOUTJ8W9V4MgGw5Hsfr-92" value="0...1" style="text;html=1;align=center;verticalAlign=middle;resizable=0;points=[];autosize=1;strokeColor=none;fillColor=none;movable=0;rotatable=0;deletable=0;editable=0;locked=1;connectable=0;" vertex="1" parent="1">
          <mxGeometry x="145" y="188" width="50" height="30" as="geometry" />
        </mxCell>
        <mxCell id="exOUTJ8W9V4MgGw5Hsfr-94" value="" style="endArrow=classic;html=1;rounded=0;movable=1;resizable=1;rotatable=1;deletable=1;editable=1;locked=0;connectable=1;" edge="1" parent="1">
          <mxGeometry width="50" height="50" relative="1" as="geometry">
            <mxPoint x="640" y="240" as="sourcePoint" />
            <mxPoint x="640" y="240" as="targetPoint" />
          </mxGeometry>
        </mxCell>
        <mxCell id="exOUTJ8W9V4MgGw5Hsfr-95" value="0...1" style="text;html=1;align=center;verticalAlign=middle;resizable=0;points=[];autosize=1;strokeColor=none;fillColor=none;rotation=270;movable=0;rotatable=0;deletable=0;editable=0;locked=1;connectable=0;" vertex="1" parent="1">
          <mxGeometry x="605" y="248" width="50" height="30" as="geometry" />
        </mxCell>
        <mxCell id="exOUTJ8W9V4MgGw5Hsfr-96" value="1...*" style="text;html=1;align=center;verticalAlign=middle;resizable=0;points=[];autosize=1;strokeColor=none;fillColor=none;rotation=-60;movable=0;rotatable=0;deletable=0;editable=0;locked=1;connectable=0;" vertex="1" parent="1">
          <mxGeometry x="730" y="820" width="40" height="30" as="geometry" />
        </mxCell>
        <mxCell id="exOUTJ8W9V4MgGw5Hsfr-97" value="1...*" style="text;html=1;align=center;verticalAlign=middle;resizable=0;points=[];autosize=1;strokeColor=none;fillColor=none;movable=0;rotatable=0;deletable=0;editable=0;locked=1;connectable=0;" vertex="1" parent="1">
          <mxGeometry x="840" y="1198" width="40" height="30" as="geometry" />
        </mxCell>
        <mxCell id="exOUTJ8W9V4MgGw5Hsfr-98" value="1...1" style="text;html=1;align=center;verticalAlign=middle;resizable=0;points=[];autosize=1;strokeColor=none;fillColor=none;rotation=60;movable=0;rotatable=0;deletable=0;editable=0;locked=1;connectable=0;" vertex="1" parent="1">
          <mxGeometry x="360" y="680" width="50" height="30" as="geometry" />
        </mxCell>
        <mxCell id="exOUTJ8W9V4MgGw5Hsfr-99" value="0...*" style="text;html=1;align=center;verticalAlign=middle;resizable=0;points=[];autosize=1;strokeColor=none;fillColor=none;rotation=55;" vertex="1" parent="1">
          <mxGeometry x="240" y="240" width="40" height="30" as="geometry" />
        </mxCell>
      </root>
    </mxGraphModel>
  </diagram>
</mxfile>
